<?xml version="1.0" encoding="UTF-8" standalone="no"?>
<svg
   xmlns:dc="http://purl.org/dc/elements/1.1/"
   xmlns:cc="http://creativecommons.org/ns#"
   xmlns:rdf="http://www.w3.org/1999/02/22-rdf-syntax-ns#"
   xmlns:svg="http://www.w3.org/2000/svg"
   xmlns="http://www.w3.org/2000/svg"
   xmlns:sodipodi="http://sodipodi.sourceforge.net/DTD/sodipodi-0.dtd"
   xmlns:inkscape="http://www.inkscape.org/namespaces/inkscape"
   width="116.57335mm"
   height="38.756832mm"
   viewBox="0 0 116.57335 38.756832"
   version="1.1"
   id="svg8"
   inkscape:version="1.0.1 (3bc2e813f5, 2020-09-07)"
   sodipodi:docname="zbank.svg">
  <defs
     id="defs2" />
  <sodipodi:namedview
     id="base"
     pagecolor="#ffffff"
     bordercolor="#666666"
     borderopacity="1.0"
     inkscape:pageopacity="0.0"
     inkscape:pageshadow="2"
     inkscape:zoom="1"
     inkscape:cx="195.70221"
     inkscape:cy="57.014245"
     inkscape:document-units="mm"
     inkscape:current-layer="layer1"
     inkscape:document-rotation="0"
     showgrid="false"
     inkscape:snap-bbox="true"
     inkscape:snap-smooth-nodes="true"
     inkscape:snap-object-midpoints="true"
     inkscape:snap-center="true"
     inkscape:snap-text-baseline="true"
     inkscape:snap-midpoints="true"
     inkscape:object-paths="true"
     inkscape:snap-intersection-paths="true"
     inkscape:snap-bbox-edge-midpoints="true"
     inkscape:bbox-nodes="true"
     inkscape:bbox-paths="true"
     inkscape:snap-bbox-midpoints="true"
     inkscape:window-width="1218"
     inkscape:window-height="1001"
     inkscape:window-x="1358"
     inkscape:window-y="-8"
     inkscape:window-maximized="1" />
  <metadata
     id="metadata5">
    <rdf:RDF>
      <cc:Work
         rdf:about="">
        <dc:format>image/svg+xml</dc:format>
        <dc:type
           rdf:resource="http://purl.org/dc/dcmitype/StillImage" />
        <dc:title></dc:title>
      </cc:Work>
    </rdf:RDF>
  </metadata>
  <g
     inkscape:label="Layer 1"
     inkscape:groupmode="layer"
     id="layer1"
     transform="translate(-9.0480826,-126.06985)">
    <g
       id="g881"
       style="fill:#ffffff">
      <path
         d="m 9.561027,141.2692 h 16.414219 v 0.9449 l -12.44565,17.62909 h 6.101338 q 3.077666,0 4.454517,-1.18787 1.376851,-1.18787 1.457842,-3.83359 h 0.944897 l -0.512944,5.96636 H 9.0480826 v -0.9449 L 21.493732,142.2141 h -5.480405 q -2.510728,0 -4.130552,1.29586 -1.619824,1.26886 -1.8897949,3.45563 H 9.0480826 Z"
         style="font-style:normal;font-variant:normal;font-weight:normal;font-stretch:normal;font-size:55.29px;line-height:1.25;font-family:Perpetua;-inkscape-font-specification:Perpetua;stroke-width:0.264583;fill:#ffffff"
         id="path855" />
      <path
         d="M 44.117278,160.78809 H 29.53886 v -0.9449 q 2.02478,0 2.807695,-1.07988 0.782915,-1.10688 0.782915,-3.94158 v -19.73486 q 0,-2.88868 -0.755918,-3.96856 -0.728921,-1.07989 -2.834692,-1.07989 v -0.9179 h 11.932705 q 5.129444,0 8.072124,2.13277 2.942681,2.10577 2.942681,5.58839 0,5.10245 -6.371309,7.18122 v 0.13499 q 3.617608,0.72892 5.885362,3.21265 2.294751,2.45674 2.294751,5.66939 0,3.50962 -2.807696,5.64238 -2.780698,2.10578 -7.3702,2.10578 z m -6.803262,-30.4527 v 13.41754 h 3.266646 q 3.428628,0 5.453408,-1.7818 2.02478,-1.80881 2.02478,-4.85948 0,-3.21265 -1.997783,-4.99445 -1.970786,-1.78181 -5.588393,-1.78181 z m 2.996675,14.63241 h -2.996675 v 9.28699 q 0,3.07767 0.674927,4.21155 0.674927,1.10688 2.591719,1.10688 h 2.618716 q 2.753701,0 4.481513,-1.8358 1.75481,-1.8628 1.75481,-4.96746 0,-3.53662 -2.510727,-5.66939 -2.483731,-2.13277 -6.614283,-2.13277 z"
         style="font-style:normal;font-variant:normal;font-weight:normal;font-stretch:normal;font-size:55.29px;line-height:1.25;font-family:Perpetua;-inkscape-font-specification:Perpetua;stroke-width:0.264583;fill:#ffffff"
         id="path857" />
      <path
         d="m 63.01523,161.40902 c -1.529834,0 -2.843691,-0.50395 -3.941572,-1.51184 -1.097881,-1.02589 -1.646822,-2.25875 -1.646822,-3.6986 0,-1.36785 0.467949,-2.49272 1.403848,-3.37463 0.953897,-0.8999 2.879688,-1.75481 5.777373,-2.56472 1.817803,-0.50395 3.04167,-0.9359 3.671602,-1.29586 v -1.45784 c 0,-1.42185 -0.395957,-2.56472 -1.187871,-3.42863 -0.791914,-0.88191 -1.853799,-1.32286 -3.185655,-1.32286 -1.205869,0 -2.276752,0.37796 -3.212651,1.13388 -0.935899,0.75592 -1.592827,1.78181 -1.970786,3.07767 l -0.998892,-0.26997 c 0.395957,-1.81781 1.250865,-3.27565 2.564722,-4.37353 1.331855,-1.09788 2.888686,-1.64682 4.670493,-1.64682 2.105771,0 3.806587,0.63893 5.102446,1.91679 1.313858,1.25987 1.970787,3.01468 1.970787,5.26443 v 8.39609 c 0,1.18787 0.07199,1.99778 0.215976,2.42973 0.161983,0.41396 0.45895,0.62094 0.890903,0.62094 0.766567,-0.19996 1.226778,-0.76003 1.322857,-1.06298 h 0.944897 c -0.08999,1.22387 -0.995509,2.08887 -0.995509,2.08887 -0.665928,0.71992 -1.713197,1.07988 -2.811078,1.07988 -1.601826,0 -2.708706,-0.9269 -3.320639,-2.7807 -0.971895,1.06189 -1.835801,1.79081 -2.591719,2.18676 -0.755918,0.39596 -1.646821,0.59394 -2.67271,0.59394 z m 5.264429,-4.5895 v -6.64128 c -0.557939,0.23397 -1.367852,0.53094 -2.429737,0.8909 -1.961787,0.66593 -3.22165,1.33185 -3.77959,1.99778 -0.539941,0.64793 -0.809912,1.52984 -0.809912,2.64572 0,0.97189 0.287969,1.8178 0.863907,2.53772 0.593935,0.70193 1.295859,1.05289 2.105771,1.05289 0.73792,0 1.511836,-0.23398 2.321748,-0.70193 0.809912,-0.48595 1.38585,-1.07988 1.727813,-1.7818 z"
         style="font-style:normal;font-variant:normal;font-weight:normal;font-stretch:normal;font-size:55.29px;line-height:1.25;font-family:Perpetua;-inkscape-font-specification:Perpetua;stroke-width:0.264583;fill:#ffffff"
         id="path859"
         sodipodi:nodetypes="scscccscsscccscsscccccscssccccscscc" />
      <path
         d="m 83.560001,140.67527 v 3.91457 q 3.428628,-3.91457 7.073233,-3.91457 2.834692,0 4.724487,1.94379 1.889795,1.91679 1.889795,5.07545 v 8.82804 q 0,2.02478 0.674927,2.67271 0.674927,0.64793 2.645717,0.64793 v 0.9449 H 90.12029 v -0.9449 q 1.943789,0 2.645713,-0.48595 0.72892,-0.51294 0.72892,-1.94379 v -10.23189 q 0,-2.05178 -1.241865,-3.26664 -1.214868,-1.21487 -3.13166,-1.21487 -2.753701,0 -5.561397,3.83358 v 9.55697 q 0,2.42973 0.620933,3.10466 0.64793,0.64793 2.67271,0.64793 v 0.9449 H 76.513766 v -0.9449 q 2.240757,0 2.753701,-0.70193 0.512944,-0.72892 0.512944,-3.05066 v -11.01481 q 0,-1.75481 -0.620932,-2.29475 -0.620933,-0.56694 -2.645713,-0.56694 v -0.9449 l 6.101338,-0.59393 z"
         style="font-style:normal;font-variant:normal;font-weight:normal;font-stretch:normal;font-size:55.29px;line-height:1.25;font-family:Perpetua;-inkscape-font-specification:Perpetua;stroke-width:0.264583;fill:#ffffff"
         id="path861" />
      <path
         d="m 117.76529,144.58984 -5.07545,4.6435 8.12612,8.12612 q 1.37685,1.37685 2.34874,1.88979 0.99889,0.51295 2.45674,0.59394 v 0.9449 h -6.39831 l -10.1779,-9.77294 q 0,7.69416 0.64793,8.2611 0.64793,0.56694 2.61872,0.56694 v 0.9449 h -10.52886 v -0.9449 q 2.26776,-0.054 2.86169,-0.70193 0.62093,-0.67492 0.62093,-3.05066 v -25.75521 q 0,-1.70082 -0.64793,-2.18676 -0.62093,-0.48595 -2.83469,-0.48595 v -0.9449 l 6.31732,-0.64793 h 0.94489 v 24.75632 l 5.23744,-4.80548 q 1.51183,-1.37685 1.51183,-2.45674 0,-1.29585 -2.37574,-1.34985 v -0.9449 h 10.66384 v 0.9449 h -0.9449 q -2.83469,0 -5.37241,2.37574 z"
         style="font-style:normal;font-variant:normal;font-weight:normal;font-stretch:normal;font-size:55.29px;line-height:1.25;font-family:Perpetua;-inkscape-font-specification:Perpetua;stroke-width:0.264583;fill:#ffffff"
         id="path863" />
      <g
         id="g849"
         transform="translate(-5.9789521,3.4176722)"
         style="fill:#ffffff">
        <path
           id="rect843"
           style="fill:#ffffff;stroke:none;stroke-width:0.300001;stroke-linecap:round;paint-order:markers stroke fill"
           transform="rotate(90)"
           d="m 133.69894,-21.466778 h 27.71007 v 0.945443 h -27.71007 z" />
        <path
           id="rect845"
           style="fill:#ffffff;stroke:none;stroke-width:0.300001;stroke-linecap:round;paint-order:markers stroke fill"
           transform="rotate(90)"
           d="m 133.69894,-26.890736 h 27.71007 v 0.945443 h -27.71007 z" />
      </g>
    </g>
  </g>
</svg>
